{
  "source": "C:\\Users\\Peter\\Desktop\\stuff\\MIUN\\quantitative_research\\video_compression\\videos\\BVI-HD\\BVI-HD_CDVL_videos\\ORIG\\Boxing_1920x1080_30fps.mp4",
  "output": "C:\\Users\\Peter\\Desktop\\stuff\\MIUN\\quantitative_research\\video_compression\\compressed_videos\\BVI-HD\\av1\\1\\Boxing_1920x1080_30fps_av1.mkv",
  "codec": "av1",
  "ok": "Input #0, mov,mp4,m4a,3gp,3g2,mj2, from 'C:\\Users\\Peter\\Desktop\\stuff\\MIUN\\quantitative_research\\video_compression\\videos\\BVI-HD\\BVI-HD_CDVL_videos\\ORIG\\Boxing_1920x1080_30fps.mp4':\n  Metadata:\n    major_brand     : isom\n    minor_version   : 512\n    compatible_brands: isomiso2avc1mp41\n    encoder         : Lavf54.28.101\n  Duration: 00:00:05.00, start: 0.000000, bitrate: 238363 kb/s\n  Stream #0:0[0x1](und): Video: h264 (High 4:4:4 Predictive) (avc1 / 0x31637661), yuv420p(progressive), 1920x1080, 238359 kb/s, 30 fps, 30 tbr, 30 tbn (default)\n    Metadata:\n      handler_name    : VideoHandler\n      vendor_id       : [0][0][0][0]\n[out#0/matroska @ 000002cbee499b00] Codec AVOption b:a (set bitrate (in bits/s)) has not been used for any stream. The most likely reason is either wrong type (e.g. a video option with no video streams) or that it is a private option of some decoder which was not actually used for any stream.\nStream mapping:\n  Stream #0:0 -> #0:0 (h264 (native) -> av1 (libsvtav1))\nPress [q] to stop, [?] for help\nSvt[info]: -------------------------------------------\nSvt[info]: SVT [version]:\tSVT-AV1 Encoder Lib v3.1.0-19-g6ecfe8ec\nSvt[info]: SVT [build]  :\tGCC 15.2.0\t 64 bit\nSvt[info]: LIB Build date: Aug 17 2025 11:37:13\nSvt[info]: -------------------------------------------\nSvt[info]: Level of Parallelism: 5\nSvt[info]: Number of PPCS 93\nSvt[info]: [asm level on system : up to avx2]\nSvt[info]: [asm level selected : up to avx2]\nSvt[info]: -------------------------------------------\nSvt[info]: SVT [config]: main profile\ttier (auto)\tlevel (auto)\nSvt[info]: SVT [config]: width / height / fps numerator / fps denominator \t\t: 1920 / 1080 / 30 / 1\nSvt[info]: SVT [config]: bit-depth / color format \t\t\t\t\t: 8 / YUV420\nSvt[info]: SVT [config]: preset / tune / pred struct \t\t\t\t\t: 4 / PSNR / random access\nSvt[info]: SVT [config]: gop size / mini-gop size / key-frame type \t\t\t: 161 / 16 / key frame\nSvt[info]: SVT [config]: BRC mode / target bitrate (kbps)\t\t\t\t: VBR / 1000 \nSvt[info]: SVT [config]: AQ mode / Variance Boost \t\t\t\t\t: 2 / 0\nSvt[info]: SVT [config]: sharpness / luminance-based QP bias \t\t\t\t: 0 / 0\nSvt[info]: SVT [config]: QP scale compress strength \t\t\t\t\t: 0\nSvt[info]: -------------------------------------------\nOutput #0, matroska, to 'C:\\Users\\Peter\\Desktop\\stuff\\MIUN\\quantitative_research\\video_compression\\compressed_videos\\BVI-HD\\av1\\1\\Boxing_1920x1080_30fps_av1.mkv':\n  Metadata:\n    major_brand     : isom\n    minor_version   : 512\n    compatible_brands: isomiso2avc1mp41\n    encoder         : Lavf62.3.100\n  Stream #0:0(und): Video: av1 (AV01 / 0x31305641), yuv420p(tv, progressive), 1920x1080, q=2-31, 1000 kb/s, 30 fps, 1k tbn (default)\n    Metadata:\n      encoder         : Lavc62.11.100 libsvtav1\n      handler_name    : VideoHandler\n      vendor_id       : [0][0][0][0]\n    Side data:\n      cpb: bitrate max/min/avg: 0/0/1000000 buffer size: 1000000 vbv_delay: N/A\nframe=    0 fps=0.0 q=0.0 size=       0KiB time=N/A bitrate=N/A speed=N/A elapsed=0:00:01.02    \nframe=    0 fps=0.0 q=0.0 size=       0KiB time=N/A bitrate=N/A speed=N/A elapsed=0:00:01.60    \nframe=    0 fps=0.0 q=0.0 size=       0KiB time=N/A bitrate=N/A speed=N/A elapsed=0:00:02.15    \nframe=    0 fps=0.0 q=0.0 size=       0KiB time=N/A bitrate=N/A speed=N/A elapsed=0:00:02.71    \nframe=    0 fps=0.0 q=0.0 size=       0KiB time=N/A bitrate=N/A speed=N/A elapsed=0:00:03.24    \nframe=    1 fps=0.3 q=26.0 size=       1KiB time=00:00:00.00 bitrate=N/A speed=   0x elapsed=0:00:03.77    \nframe=    1 fps=0.2 q=26.0 size=       1KiB time=00:00:00.00 bitrate=N/A speed=   0x elapsed=0:00:04.32    \nframe=    5 fps=1.0 q=49.0 size=       1KiB time=00:00:00.13 bitrate=  42.8kbits/s speed=0.0272x elapsed=0:00:04.89    \nframe=   10 fps=1.8 q=54.0 size=       1KiB time=00:00:00.30 bitrate=  19.0kbits/s speed=0.0554x elapsed=0:00:05.41    \nframe=   15 fps=2.5 q=49.0 size=       1KiB time=00:00:00.46 bitrate=  12.2kbits/s speed=0.0786x elapsed=0:00:05.93    \nframe=   21 fps=3.2 q=48.0 size=       1KiB time=00:00:00.66 bitrate=   8.6kbits/s speed=0.103x elapsed=0:00:06.46    \nframe=   25 fps=3.6 q=46.0 size=       1KiB time=00:00:00.80 bitrate=   7.1kbits/s speed=0.115x elapsed=0:00:06.97    \nframe=   31 fps=4.1 q=49.0 size=       1KiB time=00:00:01.00 bitrate=   5.7kbits/s speed=0.133x elapsed=0:00:07.49    \nframe=   38 fps=4.7 q=53.0 size=       1KiB time=00:00:01.23 bitrate=   4.6kbits/s speed=0.153x elapsed=0:00:08.06    \nframe=   42 fps=4.9 q=50.0 size=       1KiB time=00:00:01.36 bitrate=   4.2kbits/s speed=0.159x elapsed=0:00:08.58    \nframe=   48 fps=5.3 q=53.0 size=       1KiB time=00:00:01.53 bitrate=   3.7kbits/s speed=0.168x elapsed=0:00:09.10    \nframe=   57 fps=5.9 q=42.0 size=       1KiB time=00:00:01.86 bitrate=   3.1kbits/s speed=0.193x elapsed=0:00:09.64    \nframe=   59 fps=5.8 q=50.0 size=       1KiB time=00:00:01.93 bitrate=   3.0kbits/s speed=0.19x elapsed=0:00:10.18    \nframe=   65 fps=6.1 q=25.0 size=       1KiB time=00:00:02.13 bitrate=   2.7kbits/s speed=0.199x elapsed=0:00:10.72    \nframe=   73 fps=6.5 q=43.0 size=       1KiB time=00:00:02.40 bitrate=   2.4kbits/s speed=0.212x elapsed=0:00:11.31    \nframe=   77 fps=6.5 q=46.0 size=       1KiB time=00:00:02.53 bitrate=   2.3kbits/s speed=0.214x elapsed=0:00:11.83    \nframe=   81 fps=6.5 q=27.0 size=       1KiB time=00:00:02.66 bitrate=   2.1kbits/s speed=0.215x elapsed=0:00:12.38    \nframe=   89 fps=6.9 q=41.0 size=       1KiB time=00:00:02.93 bitrate=   1.9kbits/s speed=0.227x elapsed=0:00:12.89    \nframe=   93 fps=6.9 q=46.0 size=       1KiB time=00:00:03.06 bitrate=   1.9kbits/s speed=0.228x elapsed=0:00:13.42    \nframe=   97 fps=6.9 q=26.0 size=       1KiB time=00:00:03.20 bitrate=   1.8kbits/s speed=0.229x elapsed=0:00:13.96    \nframe=  103 fps=7.1 q=47.0 size=       1KiB time=00:00:03.40 bitrate=   1.7kbits/s speed=0.235x elapsed=0:00:14.48    \nframe=  107 fps=7.1 q=49.0 size=       1KiB time=00:00:03.53 bitrate=   1.6kbits/s speed=0.235x elapsed=0:00:15.02    \nframe=  113 fps=7.3 q=26.0 size=       1KiB time=00:00:03.73 bitrate=   1.5kbits/s speed=0.24x elapsed=0:00:15.55    \nframe=  117 fps=7.3 q=48.0 size=       1KiB time=00:00:03.86 bitrate=   1.5kbits/s speed=0.24x elapsed=0:00:16.08    \nframe=  121 fps=7.3 q=40.0 size=       1KiB time=00:00:04.00 bitrate=   1.4kbits/s speed=0.241x elapsed=0:00:16.59    \nframe=  125 fps=7.3 q=50.0 size=       1KiB time=00:00:04.13 bitrate=   1.4kbits/s speed=0.242x elapsed=0:00:17.11    \nframe=  133 fps=7.5 q=53.0 size=       1KiB time=00:00:04.40 bitrate=   1.3kbits/s speed=0.25x elapsed=0:00:17.62    \nframe=  139 fps=7.7 q=53.0 size=       1KiB time=00:00:04.60 bitrate=   1.2kbits/s speed=0.253x elapsed=0:00:18.16    \n[out#0/matroska @ 000002cbee499b00] video:589KiB audio:0KiB subtitle:0KiB other streams:0KiB global headers:0KiB muxing overhead: 0.239411%\nframe=  150 fps=8.1 q=53.0 Lsize=     590KiB time=00:00:04.96 bitrate= 973.2kbits/s speed=0.269x elapsed=0:00:18.46    \n",
  "seconds": 18.898659706115723,
  "probe_out": {}
}